<svg width="433" height="393" viewBox="0 0 433 393" fill="none" xmlns="http://www.w3.org/2000/svg">
<rect x="206" y="60" width="18" height="43" stroke="#3C4852" stroke-width="15"/>
<circle cx="215" cy="36" r="28.5" stroke="#3C4852" stroke-width="15"/>
<path d="M257 135C257 117.327 238.196 103 215 103C191.804 103 173 117.327 173 135" stroke="#3C4852" stroke-width="15"/>
<rect x="44" y="131" width="345" height="254" rx="58" stroke="#3C4852" stroke-width="15"/>
<circle cx="283" cy="258" r="27" stroke="#3C4852" stroke-width="15"/>
<circle cx="150" cy="258" r="27" stroke="#3C4852" stroke-width="15"/>
<path d="M393 290C410.673 290 425 275.673 425 258C425 240.327 410.673 226 393 226" stroke="#3C4852" stroke-width="15"/>
<path d="M40 290C22.3269 290 8 275.673 8 258C8 240.327 22.3269 226 40 226" stroke="#3C4852" stroke-width="15"/>
<rect x="79" y="195" width="273" height="126" rx="60" stroke="#3C4852" stroke-width="15"/>
</svg>
