<svg width="433" height="404" viewBox="0 0 433 404" fill="none" xmlns="http://www.w3.org/2000/svg">
<rect x="206" y="66" width="18" height="43" fill="#3C4852" stroke="#3C4852" stroke-width="15"/>
<circle cx="215" cy="36" r="28.5" stroke="#3C4852" stroke-width="15"/>
<path d="M257 141C257 123.327 238.196 109 215 109C191.804 109 173 123.327 173 141" stroke="#3C4852" stroke-width="45"/>
<rect x="44" y="137" width="345" height="254" rx="58" stroke="#3C4852" stroke-width="25"/>
<circle cx="283" cy="264" r="27" stroke="#3C4852" stroke-width="15"/>
<circle cx="150" cy="264" r="27" stroke="#3C4852" stroke-width="15"/>
<path d="M393 296C410.673 296 425 281.673 425 264C425 246.327 410.673 232 393 232" stroke="#3C4852" stroke-width="15"/>
<path d="M40 296C22.3269 296 8 281.673 8 264C8 246.327 22.3269 232 40 232" stroke="#3C4852" stroke-width="15"/>
<rect x="44" y="201" width="345" height="126" stroke="#3C4852" stroke-width="25"/>
</svg>
