<svg width="423" height="384" viewBox="0 0 423 384" fill="none" xmlns="http://www.w3.org/2000/svg">
<rect x="201" y="51" width="18" height="43" stroke="#3C4852" stroke-width="6"/>
<circle cx="210" cy="27" r="24" stroke="#3C4852" stroke-width="6"/>
<path d="M252 126C252 108.327 233.196 94 210 94C186.804 94 168 108.327 168 126" stroke="#3C4852" stroke-width="6"/>
<rect x="39" y="122" width="345" height="254" rx="58" stroke="#3C4852" stroke-width="15"/>
<circle cx="278" cy="249" r="27" stroke="#3C4852" stroke-width="8"/>
<circle cx="145" cy="249" r="27" stroke="#3C4852" stroke-width="8"/>
<path d="M388 281C405.673 281 420 266.673 420 249C420 231.327 405.673 217 388 217" stroke="#3C4852" stroke-width="6"/>
<path d="M35 281C17.3269 281 3 266.673 3 249C3 231.327 17.3269 217 35 217" stroke="#3C4852" stroke-width="6"/>
<rect x="74" y="186" width="273" height="126" rx="60" stroke="#3C4852" stroke-width="15"/>
</svg>
