<svg width="212" height="212" viewBox="0 0 212 212" fill="none" xmlns="http://www.w3.org/2000/svg">
<circle cx="107" cy="106" r="100" fill="white"/>
<path d="M6.42384 115.197C4.09009 89.93 11.449 64.7207 27.0094 44.6772C27.0111 44.675 27.0143 44.6746 27.0165 44.6763V44.6763C27.0186 44.678 27.019 44.6811 27.0173 44.6833C11.4585 64.7248 4.10028 89.9316 6.4338 115.196C8.76747 140.463 20.6196 163.897 39.5883 180.749C58.557 197.602 83.2233 206.613 108.589 205.956C133.954 205.3 158.121 195.024 176.192 177.212C194.263 159.4 204.886 135.384 205.909 110.03C206.931 84.6771 198.277 59.8833 181.7 40.6735C165.122 21.4637 141.862 9.27474 116.632 6.57682C91.4033 3.87908 66.0929 10.8729 45.8291 26.141C45.8269 26.1427 45.8237 26.1422 45.8221 26.14V26.14C45.8204 26.1378 45.8208 26.1347 45.823 26.133C66.0889 10.8634 91.4018 3.86887 116.633 6.56688C141.865 9.26506 165.128 21.4552 181.707 40.667C198.286 59.8787 206.942 84.675 205.919 110.031C204.896 135.386 194.272 159.405 176.199 177.219C158.126 195.033 133.957 205.31 108.589 205.966C83.221 206.623 58.5522 197.611 39.5816 180.757C20.611 163.902 8.75774 140.466 6.42384 115.197Z" stroke="#3C4852" stroke-width="12" stroke-linejoin="round"/>
<path d="M106 55.7458C94.0382 55.7458 82.4854 60.1024 73.5018 68.001C64.5182 75.8997 58.7186 86.7997 57.1874 98.6635C55.6562 110.527 58.498 122.543 65.1817 132.464C71.8654 142.384 81.9335 149.531 93.5036 152.569C105.074 155.606 117.354 154.326 128.049 148.967C138.744 143.608 147.121 134.538 151.614 123.451C156.107 112.365 156.409 100.022 152.464 88.7293C148.518 77.4373 140.596 67.9686 130.177 62.0931C130.176 62.0924 130.175 62.0909 130.176 62.0897V62.0897C130.177 62.0885 130.178 62.0881 130.179 62.0888C140.599 67.9649 148.523 77.4346 152.468 88.7276C156.414 100.021 156.112 112.366 151.619 123.453C147.125 134.541 138.747 143.612 128.051 148.971C117.355 154.33 105.074 155.611 93.5024 152.573C85.0507 150.355 77.4005 145.943 71.2852 139.86M106 55.7458V55.7409C106 56.2591 88.6171 54.7047 73.4985 67.9973C64.514 75.8968 58.7139 86.7979 57.1825 98.6629C55.6511 110.528 58.4933 122.544 65.1777 132.466C66.9798 135.141 69.028 137.615 71.2852 139.86M106 55.7458V32.4249M71.2852 139.86L36.2335 174.912" stroke="#3C4852" stroke-width="12" stroke-linecap="round" stroke-linejoin="round"/>
<path d="M81.6778 106.174C81.1295 100.819 82.9577 95.395 86.0808 90.9544C89.204 86.5137 93.7214 83.244 98.9156 81.6646C104.11 80.0853 109.683 80.2869 114.749 82.2374C119.816 84.1878 124.085 87.7754 126.879 92.4301C129.673 97.0848 130.832 102.54 130.171 107.928C129.51 113.317 127.068 118.33 123.232 122.172C119.395 126.013 114.386 128.463 108.998 129.131C103.611 129.799 98.1545 128.648 93.4962 125.861C93.4956 125.861 93.4954 125.86 93.4958 125.859V125.859C93.4961 125.859 93.4969 125.858 93.4975 125.859C98.1553 128.646 103.611 129.797 108.998 129.128C114.385 128.46 119.394 126.011 123.23 122.17C127.066 118.329 129.508 113.316 130.169 107.928C130.83 102.54 129.671 97.0855 126.877 92.4313C124.083 87.7771 119.814 84.1899 114.748 82.2396C109.682 80.2893 104.11 80.0878 98.9163 81.667C93.7227 83.2462 89.2057 86.5156 86.0828 90.9558C82.96 95.396 81.3935 106.174 81.6802 106.174L81.6778 106.174ZM81.6778 106.174L57.8135 106.174" stroke="#3C4852" stroke-width="12" stroke-linejoin="round"/>
<path d="M178.424 105.108V105.108C178.772 105.111 179.051 105.396 179.045 105.743C178.83 117.76 175.632 129.539 169.735 140.019C166.36 146.017 162.162 151.48 157.284 156.259M178.424 105.108C178.312 117.237 175.135 129.14 169.186 139.71C163.238 150.281 154.713 159.175 144.403 165.565C134.094 171.956 122.336 175.634 110.223 176.259C98.2143 176.879 86.2441 174.477 75.4065 169.276C75.2498 169.201 75.0614 169.266 74.9856 169.423V169.423C74.9097 169.579 74.975 169.767 75.1317 169.843C86.0648 175.09 98.1407 177.513 110.255 176.888C122.474 176.258 134.335 172.547 144.735 166.1C149.285 163.28 153.49 159.976 157.284 156.259M178.424 105.108L155.223 105.114M157.284 156.259L178.424 176.259" stroke="#3C4852" stroke-width="12" stroke-linejoin="round"/>
<path d="M173.631 78.6216C170.159 69.5987 164.903 61.3685 158.178 54.4231C151.452 47.4777 143.396 41.9598 134.489 38.1992C125.583 34.4386 116.009 32.5127 106.341 32.5364C96.6736 32.5602 87.1098 34.5332 78.2219 38.3375C69.3339 42.1418 61.3044 47.6992 54.6133 54.6776C47.9223 61.6559 42.7071 69.9119 39.2795 78.9518C35.852 87.9917 34.2826 97.6299 34.665 107.29C35.0433 116.846 37.3237 126.229 41.3715 134.89C41.4451 135.048 41.378 135.235 41.2208 135.31V135.31C41.0637 135.384 40.876 135.317 40.8024 135.159C36.7184 126.421 34.4177 116.955 34.036 107.315C33.6502 97.5702 35.2334 87.8476 38.691 78.7286C42.1485 69.6096 47.4093 61.2814 54.159 54.2419C60.9086 47.2025 69.0084 41.5964 77.9742 37.7588C86.9399 33.9212 96.5874 31.9309 106.34 31.907C116.092 31.883 125.749 33.8258 134.734 37.6193C143.718 41.4128 151.846 46.979 158.63 53.9852C165.268 60.8406 170.487 68.9369 173.989 77.809C174.117 78.1324 173.955 78.4968 173.631 78.6216V78.6216ZM173.631 78.6216L199.782 78.9518" stroke="#3C4852" stroke-width="12" stroke-linejoin="round"/>
</svg>
