<svg width="219" height="214" viewBox="0 0 219 214" fill="none" xmlns="http://www.w3.org/2000/svg">
<rect x="7" y="31.1913" width="149.789" height="175.53" rx="17" fill="white" stroke="#1DB471" stroke-width="14"/>
<path d="M32.9473 71.9752H132.947" stroke="#1DB471" stroke-width="10" stroke-linecap="round"/>
<path d="M32.9473 99.4249H132.947" stroke="#1DB471" stroke-width="10" stroke-linecap="round"/>
<path d="M32.9473 125.819H132.947" stroke="#1DB471" stroke-width="10" stroke-linecap="round"/>
<path d="M32.9473 152.212H132.947" stroke="#1DB471" stroke-width="10" stroke-linecap="round"/>
<path d="M32.9473 178.606H69.7894" stroke="#1DB471" stroke-width="10" stroke-linecap="round"/>
<path d="M67.684 47.165H98.2104C122.912 47.165 120.323 17.6898 98.3062 18.6553C98.2537 18.6576 98.2054 18.617 98.199 18.5649C96.0159 0.739623 69.8719 0.217907 67.6946 18.5688C67.6886 18.6193 67.6429 18.6597 67.5921 18.6598C43.9999 18.7335 44.0305 47.165 67.684 47.165Z" fill="white" stroke="#1DB471" stroke-width="10" stroke-linecap="round"/>
<ellipse cx="171.369" cy="162.242" rx="42.6316" ry="42.7579" fill="white" stroke="#1DB471" stroke-width="10"/>
<path d="M171 185C168.844 185 167.097 183.253 167.097 181.097V142.903C167.097 140.747 168.844 139 171 139V139C173.156 139 174.903 140.747 174.903 142.903V181.097C174.903 183.253 173.156 185 171 185V185ZM151.903 165.903C149.747 165.903 148 164.156 148 162V162C148 159.844 149.747 158.097 151.903 158.097H190.097C192.253 158.097 194 159.844 194 162V162C194 164.156 192.253 165.903 190.097 165.903H151.903Z" fill="#1DB471"/>
</svg>
