<svg width="247" height="220" viewBox="0 0 247 220" fill="none" xmlns="http://www.w3.org/2000/svg">
<circle cx="137" cy="110" r="110" fill="white"/>
<path d="M41.5811 80.0795C48.7053 57.36 63.7023 37.928 83.8747 25.2787C104.047 12.6294 128.071 7.59295 151.625 11.0753C175.18 14.5576 196.718 26.3302 212.368 44.2754C228.017 62.2207 236.749 85.161 236.995 108.97C237.24 132.779 228.982 155.894 213.705 174.158C198.429 192.422 177.137 204.636 153.66 208.602C130.182 212.569 106.06 208.029 85.6311 195.798C65.2024 183.567 49.8083 164.448 42.2177 141.88" stroke="#1DB471" stroke-width="20" stroke-linecap="round"/>
<path d="M8 102.5C3.85786 102.5 0.5 105.858 0.5 110C0.5 114.142 3.85786 117.5 8 117.5V102.5ZM166.303 115.303C169.232 112.374 169.232 107.626 166.303 104.697L118.574 56.967C115.645 54.0381 110.896 54.0381 107.967 56.967C105.038 59.8959 105.038 64.6447 107.967 67.5736L150.393 110L107.967 152.426C105.038 155.355 105.038 160.104 107.967 163.033C110.896 165.962 115.645 165.962 118.574 163.033L166.303 115.303ZM8 117.5H161V102.5H8V117.5Z" fill="#1DB471"/>
</svg>
