<svg width="219" height="214" viewBox="0 0 219 214" fill="none" xmlns="http://www.w3.org/2000/svg">
<rect x="7" y="31.1913" width="149.789" height="175.53" rx="17" fill="white" stroke="#3C4852" stroke-width="14"/>
<path d="M32.9473 71.9752H132.947" stroke="#3C4852" stroke-width="10" stroke-linecap="round"/>
<path d="M32.9473 99.4249H132.947" stroke="#3C4852" stroke-width="10" stroke-linecap="round"/>
<path d="M32.9473 125.819H132.947" stroke="#3C4852" stroke-width="10" stroke-linecap="round"/>
<path d="M32.9473 152.212H132.947" stroke="#3C4852" stroke-width="10" stroke-linecap="round"/>
<path d="M32.9473 178.606H69.7894" stroke="#3C4852" stroke-width="10" stroke-linecap="round"/>
<path d="M67.684 47.165H98.2104C122.912 47.165 120.323 17.6898 98.3062 18.6553C98.2537 18.6576 98.2054 18.617 98.199 18.5649C96.0159 0.739623 69.8719 0.217907 67.6946 18.5688C67.6886 18.6193 67.6429 18.6597 67.5921 18.6598C43.9999 18.7335 44.0305 47.165 67.684 47.165Z" fill="white" stroke="#3C4852" stroke-width="10" stroke-linecap="round"/>
<ellipse cx="171.369" cy="162.242" rx="42.6316" ry="42.7579" fill="white" stroke="#3C4852" stroke-width="10"/>
<path d="M175.403 181.097V166.403H190.097C192.529 166.403 194.5 164.432 194.5 162C194.5 159.568 192.529 157.597 190.097 157.597H175.403V142.903C175.403 140.471 173.432 138.5 171 138.5C168.568 138.5 166.597 140.471 166.597 142.903V157.597H151.903C149.471 157.597 147.5 159.568 147.5 162C147.5 164.432 149.471 166.403 151.903 166.403H166.597V181.097C166.597 183.529 168.568 185.5 171 185.5C173.432 185.5 175.403 183.529 175.403 181.097Z" fill="#3C4852" stroke="#3C4852"/>
</svg>
