<svg width="220" height="220" viewBox="0 0 220 220" fill="none" xmlns="http://www.w3.org/2000/svg">
<circle cx="110" cy="110" r="110" fill="white"/>
<path d="M12.8684 86.2209C15.9911 73.4654 21.5956 61.4499 29.3619 50.8603C37.1283 40.2708 46.9043 31.3146 58.1319 24.5032C69.3595 17.6918 81.8188 13.1585 94.7984 11.1622C107.778 9.16589 121.024 9.74565 133.779 12.8684C146.535 15.9911 158.55 21.5956 169.14 29.3619C179.729 37.1283 188.685 46.9043 195.497 58.1319C202.308 69.3595 206.841 81.8188 208.838 94.7984C210.834 107.778 210.254 121.024 207.132 133.779C204.009 146.535 198.404 158.55 190.638 169.14C182.872 179.729 173.096 188.685 161.868 195.497C150.64 202.308 138.181 206.841 125.202 208.838C112.222 210.834 98.9764 210.254 86.2209 207.132C73.4654 204.009 61.4498 198.404 50.8603 190.638C40.2707 182.872 31.3146 173.096 24.5032 161.868C17.6918 150.64 13.1585 138.181 11.1622 125.202C9.16589 112.222 9.74565 98.9764 12.8684 86.2209L12.8684 86.2209Z" stroke="#1DB471" stroke-width="15" stroke-linecap="round"/>
<path d="M119.23 156V119.23H156C157.933 119.23 159.5 117.663 159.5 115.73V105.27C159.5 103.337 157.933 101.77 156 101.77H119.23V65C119.23 63.067 117.663 61.5 115.73 61.5H105.27C103.337 61.5 101.77 63.067 101.77 65V101.77H65C63.067 101.77 61.5 103.337 61.5 105.27V115.73C61.5 117.663 63.067 119.23 65 119.23H101.77V156C101.77 157.933 103.337 159.5 105.27 159.5H115.73C117.663 159.5 119.23 157.933 119.23 156Z" fill="#1DB471" stroke="#1DB471"/>
</svg>
