<svg width="221" height="220" viewBox="0 0 221 220" fill="none" xmlns="http://www.w3.org/2000/svg">
<circle cx="110.201" cy="110" r="110" fill="white"/>
<path d="M13.0695 86.2209C16.1923 73.4654 21.7968 61.4499 29.5631 50.8603C37.3294 40.2708 47.1055 31.3146 58.3331 24.5032C69.5607 17.6918 82.02 13.1585 94.9995 11.1622C107.979 9.16589 121.225 9.74565 133.98 12.8684C146.736 15.9911 158.751 21.5956 169.341 29.3619C179.93 37.1283 188.887 46.9043 195.698 58.1319C202.509 69.3595 207.043 81.8188 209.039 94.7984C211.035 107.778 210.456 121.024 207.333 133.779C204.21 146.535 198.606 158.55 190.839 169.14C183.073 179.729 173.297 188.685 162.069 195.497C150.842 202.308 138.382 206.841 125.403 208.838C112.423 210.834 99.1776 210.254 86.422 207.132C73.6665 204.009 61.651 198.404 51.0615 190.638C40.4719 182.872 31.5158 173.096 24.7044 161.868C17.8929 150.64 13.3597 138.181 11.3634 125.202C9.36707 112.222 9.94683 98.9764 13.0695 86.2209L13.0695 86.2209Z" stroke="#3C4852" stroke-width="15" stroke-linecap="round"/>
<path d="M105.27 159C103.613 159 102.27 157.657 102.27 156V65C102.27 63.3431 103.613 62 105.27 62H115.73C117.387 62 118.73 63.3431 118.73 65V156C118.73 157.657 117.387 159 115.73 159H105.27ZM65 118.73C63.3431 118.73 62 117.387 62 115.73V105.27C62 103.613 63.3431 102.27 65 102.27H156C157.657 102.27 159 103.613 159 105.27V115.73C159 117.387 157.657 118.73 156 118.73H65Z" fill="#3C4852"/>
</svg>
