<svg width="213" height="214" viewBox="0 0 213 214" fill="none" xmlns="http://www.w3.org/2000/svg">
<rect x="7" y="31.1913" width="149.789" height="175.53" rx="17" fill="white"/>
<rect x="7" y="31.1913" width="149.789" height="175.53" rx="17" fill="white"/>
<rect x="7" y="31.1913" width="149.789" height="175.53" rx="17" stroke="#3C4852" stroke-width="14"/>
<path d="M32.9473 71.9752H132.947" stroke="#3C4852" stroke-width="10" stroke-linecap="round"/>
<path d="M32.9473 99.425H132.947" stroke="#3C4852" stroke-width="10" stroke-linecap="round"/>
<path d="M32.9473 125.819H132.947" stroke="#3C4852" stroke-width="10" stroke-linecap="round"/>
<path d="M32.9473 152.212H132.947" stroke="#3C4852" stroke-width="10" stroke-linecap="round"/>
<path d="M32.9473 178.606H69.7894" stroke="#3C4852" stroke-width="10" stroke-linecap="round"/>
<path d="M67.6843 47.165H98.2106C122.912 47.165 120.324 17.6898 98.3065 18.6553C98.254 18.6576 98.2056 18.617 98.1992 18.5649C96.0162 0.739623 69.8721 0.217907 67.6949 18.5688C67.6889 18.6193 67.6432 18.6597 67.5923 18.6598C44.0001 18.7335 44.0308 47.165 67.6843 47.165Z" fill="white"/>
<path d="M67.6843 47.165H98.2106C122.912 47.165 120.324 17.6898 98.3065 18.6553C98.254 18.6576 98.2056 18.617 98.1992 18.5649C96.0162 0.739623 69.8721 0.217907 67.6949 18.5688C67.6889 18.6193 67.6432 18.6597 67.5923 18.6598C44.0001 18.7335 44.0308 47.165 67.6843 47.165Z" fill="white"/>
<path d="M67.6843 47.165H98.2106C122.912 47.165 120.324 17.6898 98.3065 18.6553C98.254 18.6576 98.2056 18.617 98.1992 18.5649C96.0162 0.739623 69.8721 0.217907 67.6949 18.5688C67.6889 18.6193 67.6432 18.6597 67.5923 18.6598C44.0001 18.7335 44.0308 47.165 67.6843 47.165Z" stroke="#3C4852" stroke-width="10" stroke-linecap="round"/>
<ellipse cx="164.632" cy="161.758" rx="42.6316" ry="42.7579" fill="white" stroke="#3C4852" stroke-width="10"/>
<mask id="path-9-inside-1_215_69" fill="white">
<path d="M149 141C149 140.448 149.448 140 150 140H180C180.552 140 181 140.448 181 141V182.7C181 183.252 180.552 183.7 180 183.7H150C149.448 183.7 149 183.252 149 182.7V141Z"/>
</mask>
<path d="M149 141C149 134.925 153.925 130 160 130H170C176.075 130 181 134.925 181 141V150C181 150 180.552 150 180 150H150C149.448 150 149 150 149 150V141ZM181 182.7C181 188.775 176.075 193.7 170 193.7H160C153.925 193.7 149 188.775 149 182.7V173.7C149 173.7 149.448 173.7 150 173.7H180C180.552 173.7 181 173.7 181 173.7V182.7ZM149 183.7V140V183.7ZM181 140V183.7V140Z" fill="#3C4852" mask="url(#path-9-inside-1_215_69)"/>
<path d="M153.5 144.225V157.613L165 160.971L176.5 157.613V144.225H153.5Z" fill="white"/>
<path d="M153.5 144.225V157.613L165 160.971L176.5 157.613V144.225H153.5Z" fill="white"/>
<path d="M153.5 144.225V157.613L165 160.971L176.5 157.613V144.225H153.5Z" stroke="#3C4852" stroke-width="5"/>
<path d="M176.5 180.05V166.662L165 163.304L153.5 166.662V180.05H176.5Z" fill="white"/>
<path d="M176.5 180.05V166.662L165 163.304L153.5 166.662V180.05H176.5Z" fill="white"/>
<path d="M176.5 180.05V166.662L165 163.304L153.5 166.662V180.05H176.5Z" stroke="#3C4852" stroke-width="5"/>
</svg>
