<svg width="219" height="214" viewBox="0 0 219 214" fill="none" xmlns="http://www.w3.org/2000/svg">
<rect x="7" y="31.1913" width="149.789" height="175.53" rx="17" fill="white" stroke="#1DB471" stroke-width="14"/>
<path d="M32.9474 71.9752H132.947" stroke="#1DB471" stroke-width="10" stroke-linecap="round"/>
<path d="M32.9475 99.425H132.948" stroke="#1DB471" stroke-width="10" stroke-linecap="round"/>
<path d="M32.9475 125.819H132.948" stroke="#1DB471" stroke-width="10" stroke-linecap="round"/>
<path d="M32.9475 152.212H132.948" stroke="#1DB471" stroke-width="10" stroke-linecap="round"/>
<path d="M32.9475 178.606H69.7896" stroke="#1DB471" stroke-width="10" stroke-linecap="round"/>
<path d="M67.6842 47.165H98.2105C122.912 47.165 120.323 17.6898 98.3063 18.6553C98.2538 18.6576 98.2055 18.617 98.1991 18.5649C96.0161 0.739623 69.872 0.217907 67.6947 18.5688C67.6887 18.6193 67.6431 18.6597 67.5922 18.6598C44 18.7335 44.0307 47.165 67.6842 47.165Z" fill="white" stroke="#1DB471" stroke-width="10" stroke-linecap="round"/>
<ellipse cx="171.368" cy="162.242" rx="42.6316" ry="42.7579" fill="white" stroke="#1DB471" stroke-width="10"/>
<path d="M157.158 162.242L164.204 169.751C164.962 170.559 166.233 170.596 167.038 169.834L184.526 153.268" stroke="#1DB471" stroke-width="10" stroke-linecap="round"/>
</svg>
