<svg width="337" height="287" viewBox="0 0 337 287" fill="none" xmlns="http://www.w3.org/2000/svg">
<path d="M187.776 33.0779C173.209 30.6122 158.3 31.0397 143.899 34.3361C129.497 37.6325 115.886 43.7331 103.843 52.2897C91.7992 60.8462 81.5589 71.6912 73.7065 84.2053C65.8542 96.7194 60.5436 110.658 58.0779 125.224C55.6122 139.791 56.0397 154.7 59.3361 169.101C62.6325 183.503 68.7331 197.114 77.2897 209.157C85.8463 221.201 96.6912 231.441 109.205 239.293C121.719 247.146 135.658 252.456 150.224 254.922C164.791 257.388 179.7 256.96 194.101 253.664C208.503 250.368 222.114 244.267 234.157 235.71C246.201 227.154 256.441 216.309 264.293 203.795C272.146 191.281 277.456 177.342 279.922 162.776C282.388 148.209 281.96 133.3 278.664 118.899C275.368 104.497 269.267 90.8863 260.71 78.8427C252.154 66.7991 241.309 56.5589 228.795 48.7065C216.281 40.8542 202.342 35.5435 187.776 33.0779L187.776 33.0779Z" stroke="#FB6D2B" stroke-width="25" stroke-linecap="round"/>
<path d="M58.1913 33.1913C43.7054 47.6773 32.2145 64.8746 24.3748 83.8014C16.5351 102.728 12.5 123.014 12.5 143.5C12.5 163.986 16.5351 184.272 24.3748 203.199C32.2145 222.125 43.7054 239.323 58.1914 253.809" stroke="#FB6D2B" stroke-width="25" stroke-linecap="round"/>
<path d="M278.809 33.1913C293.295 47.6773 304.785 64.8746 312.625 83.8014C320.465 102.728 324.5 123.014 324.5 143.5C324.5 163.986 320.465 184.272 312.625 203.199C304.785 222.125 293.295 239.323 278.809 253.809" stroke="#FB6D2B" stroke-width="25" stroke-linecap="round"/>
<path d="M183.763 72L181.081 171.564H155.92L153.17 72H183.763ZM168.5 216C163.963 216 160.067 214.38 156.813 211.14C153.559 207.853 151.955 203.919 152.001 199.337C151.955 194.8 153.559 190.912 156.813 187.672C160.067 184.432 163.963 182.812 168.5 182.812C172.855 182.812 176.681 184.432 179.981 187.672C183.281 190.912 184.954 194.8 185 199.337C184.954 202.392 184.152 205.192 182.594 207.738C181.081 210.237 179.088 212.251 176.613 213.778C174.138 215.259 171.434 216 168.5 216Z" fill="#FB6D2B"/>
</svg>
